REM DIRINDEX 1\2,1\3\4,1\3\5,1\3\6,1\7,1\8,1\9,1\10,1\11,1\12\13,1\12\14,1\12\15,1\12\16,1\17
REM DIRNAME cjc025,folder01,folder02,folder03,folder04,folder05,folder06,folder07,folder08,folder09,folder10,folder11,folder12,folder13,folder14,folder15,folder16
TITLE ""
FILE "DB3000_5th_MK_01.mp3" MP3
  TRACK 01 AUDIO
    TITLE "13:cjc025_6332"
    INDEX 01 00:00:00
  TRACK 02 AUDIO
    TITLE "13:cjc025_6333"
    INDEX 01 00:02:02
  TRACK 03 AUDIO
    TITLE "13:cjc025_6334"
    INDEX 01 00:03:66
  TRACK 04 AUDIO
    TITLE "13:cjc025_6335"
    INDEX 01 00:05:44
  TRACK 05 AUDIO
    TITLE "13:cjc025_6336"
    INDEX 01 00:07:39
  TRACK 06 AUDIO
    TITLE "13:cjc025_6337"
    INDEX 01 00:09:18
  TRACK 07 AUDIO
    TITLE "13:cjc025_6338"
    INDEX 01 00:11:01
  TRACK 08 AUDIO
    TITLE "13:cjc025_6339"
    INDEX 01 00:12:61
  TRACK 09 AUDIO
    TITLE "13:cjc025_6340"
    INDEX 01 00:14:41
  TRACK 10 AUDIO
    TITLE "13:cjc025_6341"
    INDEX 01 00:16:26
  TRACK 11 AUDIO
    TITLE "13:cjc025_6342"
    INDEX 01 00:18:19
  TRACK 12 AUDIO
    TITLE "13:cjc025_6343"
    INDEX 01 00:19:73
  TRACK 13 AUDIO
    TITLE "13:cjc025_6344"
    INDEX 01 00:21:58
  TRACK 14 AUDIO
    TITLE "13:cjc025_6345"
    INDEX 01 00:23:34
  TRACK 15 AUDIO
    TITLE "13:cjc025_6346"
    INDEX 01 00:25:09
  TRACK 16 AUDIO
    TITLE "13:cjc025_6347"
    INDEX 01 00:26:69
  TRACK 17 AUDIO
    TITLE "13:cjc025_6348"
    INDEX 01 00:28:55
  TRACK 18 AUDIO
    TITLE "13:cjc025_6349"
    INDEX 01 00:30:28
  TRACK 19 AUDIO
    TITLE "13:cjc025_6350"
    INDEX 01 00:32:13
  TRACK 20 AUDIO
    TITLE "13:cjc025_6351"
    INDEX 01 00:33:68
  TRACK 21 AUDIO
    TITLE "13:cjc025_6352"
    INDEX 01 00:35:68
  TRACK 22 AUDIO
    TITLE "13:cjc025_6353"
    INDEX 01 00:37:48
  TRACK 23 AUDIO
    TITLE "13:cjc025_6354"
    INDEX 01 00:39:21
  TRACK 24 AUDIO
    TITLE "13:cjc025_6355"
    INDEX 01 00:41:06
  TRACK 25 AUDIO
    TITLE "13:cjc025_6356"
    INDEX 01 00:42:63
  TRACK 26 AUDIO
    TITLE "13:cjc025_6357"
    INDEX 01 00:44:54
  TRACK 27 AUDIO
    TITLE "13:cjc025_6358"
    INDEX 01 00:46:33
  TRACK 28 AUDIO
    TITLE "13:cjc025_6359"
    INDEX 01 00:48:28
  TRACK 29 AUDIO
    TITLE "13:cjc025_6360"
    INDEX 01 00:50:15
  TRACK 30 AUDIO
    TITLE "13:cjc025_6361"
    INDEX 01 00:51:73
  TRACK 31 AUDIO
    TITLE "13:cjc025_6362"
    INDEX 01 00:53:66
  TRACK 32 AUDIO
    TITLE "13:cjc025_6363"
    INDEX 01 00:55:55
  TRACK 33 AUDIO
    TITLE "13:cjc025_6364"
    INDEX 01 00:57:41
  TRACK 34 AUDIO
    TITLE "13:cjc025_6365"
    INDEX 01 00:59:24
  TRACK 35 AUDIO
    TITLE "13:cjc025_6366"
    INDEX 01 01:01:01
  TRACK 36 AUDIO
    TITLE "13:cjc025_6367"
    INDEX 01 01:02:48
  TRACK 37 AUDIO
    TITLE "13:cjc025_6368"
    INDEX 01 01:04:23
  TRACK 38 AUDIO
    TITLE "13:cjc025_6369"
    INDEX 01 01:06:02
  TRACK 39 AUDIO
    TITLE "13:cjc025_6370"
    INDEX 01 01:07:63
  TRACK 40 AUDIO
    TITLE "13:cjc025_6371"
    INDEX 01 01:09:42
  TRACK 41 AUDIO
    TITLE "13:cjc025_6372"
    INDEX 01 01:11:25
  TRACK 42 AUDIO
    TITLE "13:cjc025_6373"
    INDEX 01 01:13:04
  TRACK 43 AUDIO
    TITLE "13:cjc025_6374"
    INDEX 01 01:14:74
  TRACK 44 AUDIO
    TITLE "13:cjc025_6375"
    INDEX 01 01:16:61
  TRACK 45 AUDIO
    TITLE "13:cjc025_6376"
    INDEX 01 01:18:39
  TRACK 46 AUDIO
    TITLE "13:cjc025_6377"
    INDEX 01 01:20:24
  TRACK 47 AUDIO
    TITLE "13:cjc025_6378"
    INDEX 01 01:22:11
  TRACK 48 AUDIO
    TITLE "13:cjc025_6379"
    INDEX 01 01:24:02
  TRACK 49 AUDIO
    TITLE "13:cjc025_6380"
    INDEX 01 01:25:57
  TRACK 50 AUDIO
    TITLE "13:cjc025_6381"
    INDEX 01 01:27:42
  TRACK 51 AUDIO
    TITLE "13:cjc025_6382"
    INDEX 01 01:29:29
  TRACK 52 AUDIO
    TITLE "13:cjc025_6383"
    INDEX 01 01:31:14
  TRACK 53 AUDIO
    TITLE "13:cjc025_6384"
    INDEX 01 01:33:01
  TRACK 54 AUDIO
    TITLE "13:cjc025_6385"
    INDEX 01 01:34:61
  TRACK 55 AUDIO
    TITLE "13:cjc025_6386"
    INDEX 01 01:36:56
  TRACK 56 AUDIO
    TITLE "13:cjc025_6387"
    INDEX 01 01:38:49
  TRACK 57 AUDIO
    TITLE "13:cjc025_6388"
    INDEX 01 01:40:27
  TRACK 58 AUDIO
    TITLE "13:cjc025_6389"
    INDEX 01 01:42:04
  TRACK 59 AUDIO
    TITLE "13:cjc025_6390"
    INDEX 01 01:43:15
  TRACK 60 AUDIO
    TITLE "13:cjc025_6391"
    INDEX 01 01:45:02
  TRACK 61 AUDIO
    TITLE "13:cjc025_6392"
    INDEX 01 01:46:63
  TRACK 62 AUDIO
    TITLE "13:cjc025_6393"
    INDEX 01 01:48:34
  TRACK 63 AUDIO
    TITLE "13:cjc025_6394"
    INDEX 01 01:50:19
  TRACK 64 AUDIO
    TITLE "13:cjc025_6395"
    INDEX 01 01:52:14
  TRACK 65 AUDIO
    TITLE "13:cjc025_6396"
    INDEX 01 01:54:01
  TRACK 66 AUDIO
    TITLE "13:cjc025_6397"
    INDEX 01 01:55:58
  TRACK 67 AUDIO
    TITLE "13:cjc025_6398"
    INDEX 01 01:57:55
  TRACK 68 AUDIO
    TITLE "13:cjc025_6399"
    INDEX 01 01:59:36
  TRACK 69 AUDIO
    TITLE "13:cjc025_6400"
    INDEX 01 02:01:31
  TRACK 70 AUDIO
    TITLE "13:cjc025_6401"
    INDEX 01 02:03:12
  TRACK 71 AUDIO
    TITLE "13:cjc025_6402"
    INDEX 01 02:04:68
  TRACK 72 AUDIO
    TITLE "13:cjc025_6403"
    INDEX 01 02:06:57
  TRACK 73 AUDIO
    TITLE "13:cjc025_6404"
    INDEX 01 02:08:47
  TRACK 74 AUDIO
    TITLE "13:cjc025_6405"
    INDEX 01 02:10:55
  TRACK 75 AUDIO
    TITLE "13:cjc025_6406"
    INDEX 01 02:12:40
  TRACK 76 AUDIO
    TITLE "13:cjc025_6407"
    INDEX 01 02:14:35
  TRACK 77 AUDIO
    TITLE "13:cjc025_6408"
    INDEX 01 02:16:17
  TRACK 78 AUDIO
    TITLE "13:cjc025_6409"
    INDEX 01 02:18:04
  TRACK 79 AUDIO
    TITLE "13:cjc025_6410"
    INDEX 01 02:19:62
  TRACK 80 AUDIO
    TITLE "13:cjc025_6411"
    INDEX 01 02:21:43
  TRACK 81 AUDIO
    TITLE "13:cjc025_6412"
    INDEX 01 02:23:34
  TRACK 82 AUDIO
    TITLE "13:cjc025_6413"
    INDEX 01 02:25:21
  TRACK 83 AUDIO
    TITLE "13:cjc025_6414"
    INDEX 01 02:27:03
  TRACK 84 AUDIO
    TITLE "13:cjc025_6415"
    INDEX 01 02:28:57
  TRACK 85 AUDIO
    TITLE "13:cjc025_6416"
    INDEX 01 02:30:42
  TRACK 86 AUDIO
    TITLE "13:cjc025_6417"
    INDEX 01 02:32:35
  TRACK 87 AUDIO
    TITLE "13:cjc025_6418"
    INDEX 01 02:34:09
  TRACK 88 AUDIO
    TITLE "13:cjc025_6419"
    INDEX 01 02:35:65
  TRACK 89 AUDIO
    TITLE "13:cjc025_6420"
    INDEX 01 02:37:50
  TRACK 90 AUDIO
    TITLE "13:cjc025_6421"
    INDEX 01 02:39:27
  TRACK 91 AUDIO
    TITLE "13:cjc025_6422"
    INDEX 01 02:41:11
  TRACK 92 AUDIO
    TITLE "13:cjc025_6423"
    INDEX 01 02:42:73
  TRACK 93 AUDIO
    TITLE "13:cjc025_6424"
    INDEX 01 02:44:62
  TRACK 94 AUDIO
    TITLE "13:cjc025_6425"
    INDEX 01 02:46:43
  TRACK 95 AUDIO
    TITLE "13:cjc025_6426"
    INDEX 01 02:48:38
  TRACK 96 AUDIO
    TITLE "13:cjc025_6427"
    INDEX 01 02:50:21
  TRACK 97 AUDIO
    TITLE "13:cjc025_6428"
    INDEX 01 02:52:12
  TRACK 98 AUDIO
    TITLE "13:cjc025_6429"
    INDEX 01 02:54:02
  TRACK 99 AUDIO
    TITLE "13:cjc025_6430"
    INDEX 01 02:55:68
  TRACK 100 AUDIO
    TITLE "13:cjc025_6431"
    INDEX 01 02:57:61
  TRACK 101 AUDIO
    TITLE "13:cjc025_6432"
    INDEX 01 02:59:48
  TRACK 102 AUDIO
    TITLE "13:cjc025_6433"
    INDEX 01 03:01:29
  TRACK 103 AUDIO
    TITLE "13:cjc025_6434"
    INDEX 01 03:03:14
  TRACK 104 AUDIO
    TITLE "13:cjc025_6435"
    INDEX 01 03:05:05
  TRACK 105 AUDIO
    TITLE "13:cjc025_6436"
    INDEX 01 03:06:60
  TRACK 106 AUDIO
    TITLE "13:cjc025_6437"
    INDEX 01 03:08:00
  TRACK 107 AUDIO
    TITLE "13:cjc025_6438"
    INDEX 01 03:09:68
  TRACK 108 AUDIO
    TITLE "13:cjc025_6439"
    INDEX 01 03:11:55
  TRACK 109 AUDIO
    TITLE "13:cjc025_6440"
    INDEX 01 03:13:36
  TRACK 110 AUDIO
    TITLE "13:cjc025_6441"
    INDEX 01 03:15:33
  TRACK 111 AUDIO
    TITLE "13:cjc025_6442"
    INDEX 01 03:17:24
  TRACK 112 AUDIO
    TITLE "13:cjc025_6443"
    INDEX 01 03:19:11
  TRACK 113 AUDIO
    TITLE "13:cjc025_6444"
    INDEX 01 03:21:10
  TRACK 114 AUDIO
    TITLE "13:cjc025_6445"
    INDEX 01 03:22:70
  TRACK 115 AUDIO
    TITLE "13:cjc025_6446"
    INDEX 01 03:24:52
  TRACK 116 AUDIO
    TITLE "13:cjc025_6447"
    INDEX 01 03:26:37
  TRACK 117 AUDIO
    TITLE "13:cjc025_6448"
    INDEX 01 03:28:38
  TRACK 118 AUDIO
    TITLE "13:cjc025_6449"
    INDEX 01 03:30:17
  TRACK 119 AUDIO
    TITLE "13:cjc025_6450"
    INDEX 01 03:32:10
  TRACK 120 AUDIO
    TITLE "13:cjc025_6451"
    INDEX 01 03:33:72
  TRACK 121 AUDIO
    TITLE "13:cjc025_6452"
    INDEX 01 03:35:67
  TRACK 122 AUDIO
    TITLE "13:cjc025_6453"
    INDEX 01 03:37:54
  TRACK 123 AUDIO
    TITLE "13:cjc025_6454"
    INDEX 01 03:39:38
  TRACK 124 AUDIO
    TITLE "13:cjc025_6455"
    INDEX 01 03:41:31
  TRACK 125 AUDIO
    TITLE "13:cjc025_6456"
    INDEX 01 03:43:16
  TRACK 126 AUDIO
    TITLE "13:cjc025_6457"
    INDEX 01 03:44:74
  TRACK 127 AUDIO
    TITLE "13:cjc025_6458"
    INDEX 01 03:46:73
  TRACK 128 AUDIO
    TITLE "13:cjc025_6459"
    INDEX 01 03:48:50
  TRACK 129 AUDIO
    TITLE "13:cjc025_6460"
    INDEX 01 03:50:55
  TRACK 130 AUDIO
    TITLE "13:cjc025_6461"
    INDEX 01 03:52:48
  TRACK 131 AUDIO
    TITLE "13:cjc025_6462"
    INDEX 01 03:54:41
  TRACK 132 AUDIO
    TITLE "13:cjc025_6463"
    INDEX 01 03:56:16
  TRACK 133 AUDIO
    TITLE "13:cjc025_6464"
    INDEX 01 03:58:00
  TRACK 134 AUDIO
    TITLE "13:cjc025_6465"
    INDEX 01 03:59:54
  TRACK 135 AUDIO
    TITLE "13:cjc025_6466"
    INDEX 01 04:01:37
  TRACK 136 AUDIO
    TITLE "13:cjc025_6467"
    INDEX 01 04:03:24
  TRACK 137 AUDIO
    TITLE "13:cjc025_6468"
    INDEX 01 04:05:00
  TRACK 138 AUDIO
    TITLE "13:cjc025_6469"
    INDEX 01 04:06:54
  TRACK 139 AUDIO
    TITLE "13:cjc025_6470"
    INDEX 01 04:08:53
  TRACK 140 AUDIO
    TITLE "13:cjc025_6471"
    INDEX 01 04:10:50
  TRACK 141 AUDIO
    TITLE "13:cjc025_6472"
    INDEX 01 04:12:45
  TRACK 142 AUDIO
    TITLE "13:cjc025_6473"
    INDEX 01 04:14:30
  TRACK 143 AUDIO
    TITLE "13:cjc025_6474"
    INDEX 01 04:16:19
  TRACK 144 AUDIO
    TITLE "13:cjc025_6475"
    INDEX 01 04:18:04
  TRACK 145 AUDIO
    TITLE "13:cjc025_6476"
    INDEX 01 04:19:72
  TRACK 146 AUDIO
    TITLE "13:cjc025_6477"
    INDEX 01 04:21:61
  TRACK 147 AUDIO
    TITLE "13:cjc025_6478"
    INDEX 01 04:23:47
  TRACK 148 AUDIO
    TITLE "13:cjc025_6479"
    INDEX 01 04:25:42
  TRACK 149 AUDIO
    TITLE "13:cjc025_6480"
    INDEX 01 04:27:37
  TRACK 150 AUDIO
    TITLE "13:cjc025_6481"
    INDEX 01 04:29:10
  TRACK 151 AUDIO
    TITLE "13:cjc025_6482"
    INDEX 01 04:31:09
  TRACK 152 AUDIO
    TITLE "13:cjc025_6483"
    INDEX 01 04:32:71
  TRACK 153 AUDIO
    TITLE "13:cjc025_6484"
    INDEX 01 04:34:52
  TRACK 154 AUDIO
    TITLE "13:cjc025_6485"
    INDEX 01 04:36:28
  TRACK 155 AUDIO
    TITLE "13:cjc025_6486"
    INDEX 01 04:38:01
  TRACK 156 AUDIO
    TITLE "13:cjc025_6487"
    INDEX 01 04:39:55
  TRACK 157 AUDIO
    TITLE "13:cjc025_6488"
    INDEX 01 04:41:45
  TRACK 158 AUDIO
    TITLE "13:cjc025_6489"
    INDEX 01 04:43:24
  TRACK 159 AUDIO
    TITLE "13:cjc025_6490"
    INDEX 01 04:44:66
  TRACK 160 AUDIO
    TITLE "13:cjc025_6491"
    INDEX 01 04:46:54
  TRACK 161 AUDIO
    TITLE "13:cjc025_6492"
    INDEX 01 04:48:54
  TRACK 162 AUDIO
    TITLE "13:cjc025_6493"
    INDEX 01 04:50:36
  TRACK 163 AUDIO
    TITLE "13:cjc025_6494"
    INDEX 01 04:52:13
  TRACK 164 AUDIO
    TITLE "13:cjc025_6495"
    INDEX 01 04:53:73
  TRACK 165 AUDIO
    TITLE "13:cjc025_6496"
    INDEX 01 04:55:70
  TRACK 166 AUDIO
    TITLE "13:cjc025_6497"
    INDEX 01 04:57:47
  TRACK 167 AUDIO
    TITLE "13:cjc025_6498"
    INDEX 01 04:59:27
  TRACK 168 AUDIO
    TITLE "13:cjc025_6499"
    INDEX 01 05:01:22
  TRACK 169 AUDIO
    TITLE "13:cjc025_6500"
    INDEX 01 05:03:05
  TRACK 170 AUDIO
    TITLE "13:cjc025_6501"
    INDEX 01 05:04:69
  TRACK 171 AUDIO
    TITLE "13:cjc025_6502"
    INDEX 01 05:06:58
  TRACK 172 AUDIO
    TITLE "13:cjc025_6503"
    INDEX 01 05:08:37
  TRACK 173 AUDIO
    TITLE "13:cjc025_6504"
    INDEX 01 05:10:19
  TRACK 174 AUDIO
    TITLE "13:cjc025_6505"
    INDEX 01 05:12:00
  TRACK 175 AUDIO
    TITLE "13:cjc025_6506"
    INDEX 01 05:13:64
  TRACK 176 AUDIO
    TITLE "13:cjc025_6507"
    INDEX 01 05:15:45
  TRACK 177 AUDIO
    TITLE "13:cjc025_6508"
    INDEX 01 05:17:36
  TRACK 178 AUDIO
    TITLE "13:cjc025_6509"
    INDEX 01 05:19:20
  TRACK 179 AUDIO
    TITLE "13:cjc025_6510"
    INDEX 01 05:21:11
  TRACK 180 AUDIO
    TITLE "13:cjc025_6511"
    INDEX 01 05:22:71
  TRACK 181 AUDIO
    TITLE "13:cjc025_6512"
    INDEX 01 05:24:68
  TRACK 182 AUDIO
    TITLE "13:cjc025_6513"
    INDEX 01 05:26:47
  TRACK 183 AUDIO
    TITLE "13:cjc025_6514"
    INDEX 01 05:27:60
  TRACK 184 AUDIO
    TITLE "13:cjc025_6515"
    INDEX 01 05:29:47
  TRACK 185 AUDIO
    TITLE "13:cjc025_6516"
    INDEX 01 05:31:29
  TRACK 186 AUDIO
    TITLE "13:cjc025_6517"
    INDEX 01 05:33:18
  TRACK 187 AUDIO
    TITLE "13:cjc025_6518"
    INDEX 01 05:34:66
  TRACK 188 AUDIO
    TITLE "13:cjc025_6519"
    INDEX 01 05:36:59
  TRACK 189 AUDIO
    TITLE "13:cjc025_6520"
    INDEX 01 05:38:35
  TRACK 190 AUDIO
    TITLE "13:cjc025_6521"
    INDEX 01 05:40:12
  TRACK 191 AUDIO
    TITLE "13:cjc025_6522"
    INDEX 01 05:42:01
  TRACK 192 AUDIO
    TITLE "13:cjc025_6523"
    INDEX 01 05:43:55
  TRACK 193 AUDIO
    TITLE "13:cjc025_6524"
    INDEX 01 05:45:43
  TRACK 194 AUDIO
    TITLE "13:cjc025_6525"
    INDEX 01 05:47:28
  TRACK 195 AUDIO
    TITLE "13:cjc025_6526"
    INDEX 01 05:49:09
  TRACK 196 AUDIO
    TITLE "13:cjc025_6527"
    INDEX 01 05:50:55
  TRACK 197 AUDIO
    TITLE "13:cjc025_6528"
    INDEX 01 05:52:33
  TRACK 198 AUDIO
    TITLE "13:cjc025_6529"
    INDEX 01 05:54:10
  TRACK 199 AUDIO
    TITLE "13:cjc025_6530"
    INDEX 01 05:55:70
  TRACK 200 AUDIO
    TITLE "13:cjc025_6531"
    INDEX 01 05:57:57
  TRACK 201 AUDIO
    TITLE "13:cjc025_6532"
    INDEX 01 05:59:39
  TRACK 202 AUDIO
    TITLE "13:cjc025_6533"
    INDEX 01 06:01:24
  TRACK 203 AUDIO
    TITLE "13:cjc025_6534"
    INDEX 01 06:03:13
  TRACK 204 AUDIO
    TITLE "13:cjc025_6535"
    INDEX 01 06:04:60
  TRACK 205 AUDIO
    TITLE "13:cjc025_6536"
    INDEX 01 06:06:49
  TRACK 206 AUDIO
    TITLE "13:cjc025_6537"
    INDEX 01 06:08:30
  TRACK 207 AUDIO
    TITLE "13:cjc025_6538"
    INDEX 01 06:10:46
  TRACK 208 AUDIO
    TITLE "13:cjc025_6539"
    INDEX 01 06:12:22
  TRACK 209 AUDIO
    TITLE "13:cjc025_6540"
    INDEX 01 06:14:01
  TRACK 210 AUDIO
    TITLE "13:cjc025_6541"
    INDEX 01 06:15:59
  TRACK 211 AUDIO
    TITLE "13:cjc025_6542"
    INDEX 01 06:17:43
  TRACK 212 AUDIO
    TITLE "13:cjc025_6543"
    INDEX 01 06:19:14
  TRACK 213 AUDIO
    TITLE "13:cjc025_6544"
    INDEX 01 06:20:72
  TRACK 214 AUDIO
    TITLE "13:cjc025_6545"
    INDEX 01 06:22:55
  TRACK 215 AUDIO
    TITLE "13:cjc025_6546"
    INDEX 01 06:24:41
  TRACK 216 AUDIO
    TITLE "13:cjc025_6547"
    INDEX 01 06:26:20
  TRACK 217 AUDIO
    TITLE "13:cjc025_6548"
    INDEX 01 06:27:74
  TRACK 218 AUDIO
    TITLE "13:cjc025_6549"
    INDEX 01 06:29:52
  TRACK 219 AUDIO
    TITLE "13:cjc025_6550"
    INDEX 01 06:31:35
  TRACK 220 AUDIO
    TITLE "13:cjc025_6551"
    INDEX 01 06:33:14
  TRACK 221 AUDIO
    TITLE "13:cjc025_6552"
    INDEX 01 06:35:01
  TRACK 222 AUDIO
    TITLE "13:cjc025_6553"
    INDEX 01 06:36:61
  TRACK 223 AUDIO
    TITLE "13:cjc025_6554"
    INDEX 01 06:38:33
  TRACK 224 AUDIO
    TITLE "13:cjc025_6555"
    INDEX 01 06:40:14
  TRACK 225 AUDIO
    TITLE "13:cjc025_6556"
    INDEX 01 06:42:21
  TRACK 226 AUDIO
    TITLE "13:cjc025_6557"
    INDEX 01 06:44:12
  TRACK 227 AUDIO
    TITLE "13:cjc025_6558"
    INDEX 01 06:45:64
  TRACK 228 AUDIO
    TITLE "13:cjc025_6559"
    INDEX 01 06:47:55
  TRACK 229 AUDIO
    TITLE "13:cjc025_6560"
    INDEX 01 06:49:50
  TRACK 230 AUDIO
    TITLE "13:cjc025_6561"
    INDEX 01 06:51:53
  TRACK 231 AUDIO
    TITLE "13:cjc025_6562"
    INDEX 01 06:53:25
  TRACK 232 AUDIO
    TITLE "13:cjc025_6563"
    INDEX 01 06:55:02
  TRACK 233 AUDIO
    TITLE "13:cjc025_6564"
    INDEX 01 06:56:70
  TRACK 234 AUDIO
    TITLE "13:cjc025_6565"
    INDEX 01 06:58:55
  TRACK 235 AUDIO
    TITLE "13:cjc025_6566"
    INDEX 01 07:00:40
  TRACK 236 AUDIO
    TITLE "13:cjc025_6567"
    INDEX 01 07:02:28
  TRACK 237 AUDIO
    TITLE "13:cjc025_6568"
    INDEX 01 07:04:13
  TRACK 238 AUDIO
    TITLE "13:cjc025_6569"
    INDEX 01 07:05:73
  TRACK 239 AUDIO
    TITLE "13:cjc025_6570"
    INDEX 01 07:07:54
  TRACK 240 AUDIO
    TITLE "13:cjc025_6571"
    INDEX 01 07:09:37
  TRACK 241 AUDIO
    TITLE "13:cjc025_6572"
    INDEX 01 07:11:21
  TRACK 242 AUDIO
    TITLE "13:cjc025_6573"
    INDEX 01 07:13:18
  TRACK 243 AUDIO
    TITLE "13:cjc025_6574"
    INDEX 01 07:14:74
  TRACK 244 AUDIO
    TITLE "13:cjc025_6575"
    INDEX 01 07:16:59
  TRACK 245 AUDIO
    TITLE "13:cjc025_6576"
    INDEX 01 07:18:50
  TRACK 246 AUDIO
    TITLE "13:cjc025_6577"
    INDEX 01 07:20:39
  TRACK 247 AUDIO
    TITLE "13:cjc025_6578"
    INDEX 01 07:22:28
  TRACK 248 AUDIO
    TITLE "13:cjc025_6579"
    INDEX 01 07:24:25
  TRACK 249 AUDIO
    TITLE "13:cjc025_6580"
    INDEX 01 07:26:10
  TRACK 250 AUDIO
    TITLE "13:cjc025_6581"
    INDEX 01 07:28:25
  TRACK 251 AUDIO
    TITLE "13:cjc025_6582"
    INDEX 01 07:30:38
  TRACK 252 AUDIO
    TITLE "13:cjc025_6583"
    INDEX 01 07:32:19
  TRACK 253 AUDIO
    TITLE "13:cjc025_6584"
    INDEX 01 07:34:18
  TRACK 254 AUDIO
    TITLE "13:cjc025_6585"
    INDEX 01 07:36:05
  TRACK 255 AUDIO
    TITLE "13:cjc025_6586"
    INDEX 01 07:38:06
  TRACK 256 AUDIO
    TITLE "13:cjc025_6587"
    INDEX 01 07:40:05
  TRACK 257 AUDIO
    TITLE "13:cjc025_6588"
    INDEX 01 07:42:02
  TRACK 258 AUDIO
    TITLE "13:cjc025_6589"
    INDEX 01 07:43:62
  TRACK 259 AUDIO
    TITLE "13:cjc025_6590"
    INDEX 01 07:45:49
  TRACK 260 AUDIO
    TITLE "13:cjc025_6591"
    INDEX 01 07:47:38
  TRACK 261 AUDIO
    TITLE "13:cjc025_6592"
    INDEX 01 07:49:17
  TRACK 262 AUDIO
    TITLE "13:cjc025_6593"
    INDEX 01 07:51:04
  TRACK 263 AUDIO
    TITLE "13:cjc025_6594"
    INDEX 01 07:52:55
  TRACK 264 AUDIO
    TITLE "13:cjc025_6595"
    INDEX 01 07:54:48
  TRACK 265 AUDIO
    TITLE "13:cjc025_6596"
    INDEX 01 07:56:33
  TRACK 266 AUDIO
    TITLE "13:cjc025_6597"
    INDEX 01 07:58:28
  TRACK 267 AUDIO
    TITLE "13:cjc025_6598"
    INDEX 01 08:00:09
  TRACK 268 AUDIO
    TITLE "13:cjc025_6599"
    INDEX 01 08:01:73
  TRACK 269 AUDIO
    TITLE "13:cjc025_6600"
    INDEX 01 08:03:66
  TRACK 270 AUDIO
    TITLE "13:cjc025_6601"
    INDEX 01 08:05:57
  TRACK 271 AUDIO
    TITLE "13:cjc025_6602"
    INDEX 01 08:07:47
  TRACK 272 AUDIO
    TITLE "13:cjc025_6603"
    INDEX 01 08:09:32
  TRACK 273 AUDIO
    TITLE "13:cjc025_6604"
    INDEX 01 08:11:17
  TRACK 274 AUDIO
    TITLE "13:cjc025_6605"
    INDEX 01 08:13:02
  TRACK 275 AUDIO
    TITLE "13:cjc025_6606"
    INDEX 01 08:14:54
  TRACK 276 AUDIO
    TITLE "13:cjc025_6607"
    INDEX 01 08:16:48
  TRACK 277 AUDIO
    TITLE "13:cjc025_6608"
    INDEX 01 08:18:27
  TRACK 278 AUDIO
    TITLE "13:cjc025_6609"
    INDEX 01 08:20:12
  TRACK 279 AUDIO
    TITLE "13:cjc025_6610"
    INDEX 01 08:21:74
  TRACK 280 AUDIO
    TITLE "13:cjc025_6611"
    INDEX 01 08:23:28
  TRACK 281 AUDIO
    TITLE "13:cjc025_6612"
    INDEX 01 08:25:23
  TRACK 282 AUDIO
    TITLE "13:cjc025_6613"
    INDEX 01 08:27:20
  TRACK 283 AUDIO
    TITLE "13:cjc025_6614"
    INDEX 01 08:28:74
  TRACK 284 AUDIO
    TITLE "13:cjc025_6615"
    INDEX 01 08:30:52
  TRACK 285 AUDIO
    TITLE "13:cjc025_6616"
    INDEX 01 08:32:45
  TRACK 286 AUDIO
    TITLE "13:cjc025_6617"
    INDEX 01 08:34:30
  TRACK 287 AUDIO
    TITLE "13:cjc025_6618"
    INDEX 01 08:36:17
  TRACK 288 AUDIO
    TITLE "13:cjc025_6619"
    INDEX 01 08:37:30
  TRACK 289 AUDIO
    TITLE "13:cjc025_6620"
    INDEX 01 08:39:15
  TRACK 290 AUDIO
    TITLE "13:cjc025_6621"
    INDEX 01 08:41:02
  TRACK 291 AUDIO
    TITLE "13:cjc025_6622"
    INDEX 01 08:43:11
  TRACK 292 AUDIO
    TITLE "13:cjc025_6623"
    INDEX 01 08:45:00
  TRACK 293 AUDIO
    TITLE "13:cjc025_6624"
    INDEX 01 08:46:72
  TRACK 294 AUDIO
    TITLE "13:cjc025_6625"
    INDEX 01 08:48:55
  TRACK 295 AUDIO
    TITLE "13:cjc025_6626"
    INDEX 01 08:50:33
  TRACK 296 AUDIO
    TITLE "13:cjc025_6627"
    INDEX 01 08:52:12
  TRACK 297 AUDIO
    TITLE "13:cjc025_6628"
    INDEX 01 08:53:70
  TRACK 298 AUDIO
    TITLE "13:cjc025_6629"
    INDEX 01 08:56:00
  TRACK 299 AUDIO
    TITLE "13:cjc025_6630"
    INDEX 01 08:57:52
  TRACK 300 AUDIO
    TITLE "13:cjc025_6631"
    INDEX 01 08:59:36
  TRACK 301 AUDIO
    TITLE "13:cjc025_6632"
    INDEX 01 09:01:23
  TRACK 302 AUDIO
    TITLE "13:cjc025_6633"
    INDEX 01 09:02:69
  TRACK 303 AUDIO
    TITLE "13:cjc025_6634"
    INDEX 01 09:04:50
  TRACK 304 AUDIO
    TITLE "0:"
    INDEX 01 09:06:22
